<mxfile host="app.diagrams.net" agent="Mozilla/5.0 (Windows NT 10.0; Win64; x64) AppleWebKit/537.36 (KHTML, like Gecko) Chrome/126.0.0.0 Safari/537.36 Edg/126.0.0.0" version="24.7.5">
  <diagram id="C5RBs43oDa-KdzZeNtuy" name="Page-1">
    <mxGraphModel dx="2026" dy="1111" grid="1" gridSize="10" guides="1" tooltips="1" connect="1" arrows="1" fold="1" page="1" pageScale="1" pageWidth="827" pageHeight="1169" background="#E6E6E6" math="0" shadow="0">
      <root>
        <mxCell id="WIyWlLk6GJQsqaUBKTNV-0" />
        <mxCell id="WIyWlLk6GJQsqaUBKTNV-1" parent="WIyWlLk6GJQsqaUBKTNV-0" />
        <mxCell id="y6UDbXkzMEYgvbYnua1N-1" style="edgeStyle=orthogonalEdgeStyle;rounded=0;orthogonalLoop=1;jettySize=auto;html=1;exitX=0.5;exitY=1;exitDx=0;exitDy=0;exitPerimeter=0;entryX=0.5;entryY=0;entryDx=0;entryDy=0;fontSize=13;" edge="1" parent="WIyWlLk6GJQsqaUBKTNV-1" source="y6UDbXkzMEYgvbYnua1N-2" target="y6UDbXkzMEYgvbYnua1N-7">
          <mxGeometry relative="1" as="geometry" />
        </mxCell>
        <mxCell id="y6UDbXkzMEYgvbYnua1N-2" value="开始" style="strokeWidth=2;html=1;shape=mxgraph.flowchart.start_1;whiteSpace=wrap;fontSize=13;" vertex="1" parent="WIyWlLk6GJQsqaUBKTNV-1">
          <mxGeometry x="590" y="230" width="100" height="60" as="geometry" />
        </mxCell>
        <mxCell id="y6UDbXkzMEYgvbYnua1N-3" value="" style="edgeStyle=orthogonalEdgeStyle;rounded=0;orthogonalLoop=1;jettySize=auto;html=1;fontSize=13;" edge="1" parent="WIyWlLk6GJQsqaUBKTNV-1" source="y6UDbXkzMEYgvbYnua1N-7" target="y6UDbXkzMEYgvbYnua1N-9">
          <mxGeometry relative="1" as="geometry" />
        </mxCell>
        <mxCell id="y6UDbXkzMEYgvbYnua1N-4" value="测试线程" style="edgeLabel;html=1;align=center;verticalAlign=middle;resizable=0;points=[];fontSize=13;" vertex="1" connectable="0" parent="y6UDbXkzMEYgvbYnua1N-3">
          <mxGeometry x="-0.1866" y="1" relative="1" as="geometry">
            <mxPoint as="offset" />
          </mxGeometry>
        </mxCell>
        <mxCell id="y6UDbXkzMEYgvbYnua1N-5" value="" style="edgeStyle=orthogonalEdgeStyle;rounded=0;orthogonalLoop=1;jettySize=auto;html=1;fontSize=13;" edge="1" parent="WIyWlLk6GJQsqaUBKTNV-1" source="y6UDbXkzMEYgvbYnua1N-7" target="y6UDbXkzMEYgvbYnua1N-28">
          <mxGeometry relative="1" as="geometry" />
        </mxCell>
        <mxCell id="y6UDbXkzMEYgvbYnua1N-6" value="监控线程" style="edgeLabel;html=1;align=center;verticalAlign=middle;resizable=0;points=[];fontSize=13;" vertex="1" connectable="0" parent="y6UDbXkzMEYgvbYnua1N-5">
          <mxGeometry x="-0.5139" y="-2" relative="1" as="geometry">
            <mxPoint as="offset" />
          </mxGeometry>
        </mxCell>
        <mxCell id="y6UDbXkzMEYgvbYnua1N-7" value="根据a0，a1和线程入口表找到线程对应的入口" style="rhombus;whiteSpace=wrap;html=1;strokeWidth=2;fontSize=13;" vertex="1" parent="WIyWlLk6GJQsqaUBKTNV-1">
          <mxGeometry x="565" y="330" width="150" height="80" as="geometry" />
        </mxCell>
        <mxCell id="y6UDbXkzMEYgvbYnua1N-8" value="" style="edgeStyle=orthogonalEdgeStyle;rounded=0;orthogonalLoop=1;jettySize=auto;html=1;fontSize=13;" edge="1" parent="WIyWlLk6GJQsqaUBKTNV-1" source="y6UDbXkzMEYgvbYnua1N-9" target="y6UDbXkzMEYgvbYnua1N-11">
          <mxGeometry relative="1" as="geometry" />
        </mxCell>
        <mxCell id="y6UDbXkzMEYgvbYnua1N-9" value="执行若干条无关指令" style="whiteSpace=wrap;html=1;fontSize=13;strokeWidth=2;" vertex="1" parent="WIyWlLk6GJQsqaUBKTNV-1">
          <mxGeometry x="400" y="420" width="120" height="60" as="geometry" />
        </mxCell>
        <mxCell id="y6UDbXkzMEYgvbYnua1N-10" value="" style="edgeStyle=orthogonalEdgeStyle;rounded=0;orthogonalLoop=1;jettySize=auto;html=1;fontSize=13;" edge="1" parent="WIyWlLk6GJQsqaUBKTNV-1" source="y6UDbXkzMEYgvbYnua1N-11" target="y6UDbXkzMEYgvbYnua1N-13">
          <mxGeometry relative="1" as="geometry" />
        </mxCell>
        <mxCell id="y6UDbXkzMEYgvbYnua1N-11" value="自旋上锁" style="whiteSpace=wrap;html=1;fontSize=13;strokeWidth=2;" vertex="1" parent="WIyWlLk6GJQsqaUBKTNV-1">
          <mxGeometry x="400" y="520" width="120" height="60" as="geometry" />
        </mxCell>
        <mxCell id="y6UDbXkzMEYgvbYnua1N-12" value="" style="edgeStyle=orthogonalEdgeStyle;rounded=0;orthogonalLoop=1;jettySize=auto;html=1;fontSize=13;" edge="1" parent="WIyWlLk6GJQsqaUBKTNV-1" source="y6UDbXkzMEYgvbYnua1N-13" target="y6UDbXkzMEYgvbYnua1N-15">
          <mxGeometry relative="1" as="geometry" />
        </mxCell>
        <mxCell id="y6UDbXkzMEYgvbYnua1N-13" value="存一个数到MEM的共用数据区中" style="whiteSpace=wrap;html=1;fontSize=13;strokeWidth=2;" vertex="1" parent="WIyWlLk6GJQsqaUBKTNV-1">
          <mxGeometry x="400" y="620" width="120" height="60" as="geometry" />
        </mxCell>
        <mxCell id="y6UDbXkzMEYgvbYnua1N-14" value="" style="edgeStyle=orthogonalEdgeStyle;rounded=0;orthogonalLoop=1;jettySize=auto;html=1;fontSize=13;" edge="1" parent="WIyWlLk6GJQsqaUBKTNV-1" source="y6UDbXkzMEYgvbYnua1N-15" target="y6UDbXkzMEYgvbYnua1N-17">
          <mxGeometry relative="1" as="geometry" />
        </mxCell>
        <mxCell id="y6UDbXkzMEYgvbYnua1N-15" value="空若干拍" style="whiteSpace=wrap;html=1;fontSize=13;strokeWidth=2;" vertex="1" parent="WIyWlLk6GJQsqaUBKTNV-1">
          <mxGeometry x="400" y="720" width="120" height="60" as="geometry" />
        </mxCell>
        <mxCell id="y6UDbXkzMEYgvbYnua1N-16" value="" style="edgeStyle=orthogonalEdgeStyle;rounded=0;orthogonalLoop=1;jettySize=auto;html=1;fontSize=13;" edge="1" parent="WIyWlLk6GJQsqaUBKTNV-1" source="y6UDbXkzMEYgvbYnua1N-17" target="y6UDbXkzMEYgvbYnua1N-22">
          <mxGeometry relative="1" as="geometry" />
        </mxCell>
        <mxCell id="y6UDbXkzMEYgvbYnua1N-17" value="从共用数据区读取这个数" style="whiteSpace=wrap;html=1;fontSize=13;strokeWidth=2;" vertex="1" parent="WIyWlLk6GJQsqaUBKTNV-1">
          <mxGeometry x="400" y="820" width="120" height="60" as="geometry" />
        </mxCell>
        <mxCell id="y6UDbXkzMEYgvbYnua1N-18" value="" style="edgeStyle=orthogonalEdgeStyle;rounded=0;orthogonalLoop=1;jettySize=auto;html=1;fontSize=13;" edge="1" parent="WIyWlLk6GJQsqaUBKTNV-1" source="y6UDbXkzMEYgvbYnua1N-22" target="y6UDbXkzMEYgvbYnua1N-24">
          <mxGeometry relative="1" as="geometry" />
        </mxCell>
        <mxCell id="y6UDbXkzMEYgvbYnua1N-19" value="Y" style="edgeLabel;html=1;align=center;verticalAlign=middle;resizable=0;points=[];fontSize=13;" vertex="1" connectable="0" parent="y6UDbXkzMEYgvbYnua1N-18">
          <mxGeometry x="-0.5656" y="2" relative="1" as="geometry">
            <mxPoint as="offset" />
          </mxGeometry>
        </mxCell>
        <mxCell id="y6UDbXkzMEYgvbYnua1N-20" value="" style="edgeStyle=orthogonalEdgeStyle;rounded=0;orthogonalLoop=1;jettySize=auto;html=1;fontSize=13;" edge="1" parent="WIyWlLk6GJQsqaUBKTNV-1" source="y6UDbXkzMEYgvbYnua1N-22" target="y6UDbXkzMEYgvbYnua1N-26">
          <mxGeometry relative="1" as="geometry" />
        </mxCell>
        <mxCell id="y6UDbXkzMEYgvbYnua1N-21" value="N" style="edgeLabel;html=1;align=center;verticalAlign=middle;resizable=0;points=[];fontSize=13;" vertex="1" connectable="0" parent="y6UDbXkzMEYgvbYnua1N-20">
          <mxGeometry x="-0.3533" y="2" relative="1" as="geometry">
            <mxPoint as="offset" />
          </mxGeometry>
        </mxCell>
        <mxCell id="y6UDbXkzMEYgvbYnua1N-22" value="数据是否变化" style="rhombus;whiteSpace=wrap;html=1;fontSize=13;strokeWidth=2;" vertex="1" parent="WIyWlLk6GJQsqaUBKTNV-1">
          <mxGeometry x="400" y="927" width="120" height="80" as="geometry" />
        </mxCell>
        <mxCell id="y6UDbXkzMEYgvbYnua1N-23" style="edgeStyle=orthogonalEdgeStyle;rounded=0;orthogonalLoop=1;jettySize=auto;html=1;exitX=0.5;exitY=1;exitDx=0;exitDy=0;entryX=0.5;entryY=0;entryDx=0;entryDy=0;fontSize=13;" edge="1" parent="WIyWlLk6GJQsqaUBKTNV-1" source="y6UDbXkzMEYgvbYnua1N-24" target="y6UDbXkzMEYgvbYnua1N-69">
          <mxGeometry relative="1" as="geometry" />
        </mxCell>
        <mxCell id="y6UDbXkzMEYgvbYnua1N-24" value="解锁" style="whiteSpace=wrap;html=1;fontSize=13;strokeWidth=2;" vertex="1" parent="WIyWlLk6GJQsqaUBKTNV-1">
          <mxGeometry x="540" y="1035" width="120" height="60" as="geometry" />
        </mxCell>
        <mxCell id="y6UDbXkzMEYgvbYnua1N-25" value="" style="edgeStyle=orthogonalEdgeStyle;rounded=0;orthogonalLoop=1;jettySize=auto;html=1;fontSize=13;" edge="1" parent="WIyWlLk6GJQsqaUBKTNV-1" source="y6UDbXkzMEYgvbYnua1N-26" target="y6UDbXkzMEYgvbYnua1N-67">
          <mxGeometry relative="1" as="geometry" />
        </mxCell>
        <mxCell id="y6UDbXkzMEYgvbYnua1N-26" value="解锁" style="whiteSpace=wrap;html=1;fontSize=13;strokeWidth=2;" vertex="1" parent="WIyWlLk6GJQsqaUBKTNV-1">
          <mxGeometry x="260" y="1035" width="120" height="60" as="geometry" />
        </mxCell>
        <mxCell id="y6UDbXkzMEYgvbYnua1N-27" value="" style="edgeStyle=orthogonalEdgeStyle;rounded=0;orthogonalLoop=1;jettySize=auto;html=1;fontSize=13;" edge="1" parent="WIyWlLk6GJQsqaUBKTNV-1" source="y6UDbXkzMEYgvbYnua1N-28" target="y6UDbXkzMEYgvbYnua1N-31">
          <mxGeometry relative="1" as="geometry" />
        </mxCell>
        <mxCell id="y6UDbXkzMEYgvbYnua1N-28" value="读取running_test_thread_num" style="whiteSpace=wrap;html=1;fontSize=13;strokeWidth=2;" vertex="1" parent="WIyWlLk6GJQsqaUBKTNV-1">
          <mxGeometry x="870" y="430" width="160" height="60" as="geometry" />
        </mxCell>
        <mxCell id="y6UDbXkzMEYgvbYnua1N-29" style="edgeStyle=orthogonalEdgeStyle;rounded=0;orthogonalLoop=1;jettySize=auto;html=1;exitX=1;exitY=0.5;exitDx=0;exitDy=0;entryX=1;entryY=0.5;entryDx=0;entryDy=0;fontSize=13;" edge="1" parent="WIyWlLk6GJQsqaUBKTNV-1" source="y6UDbXkzMEYgvbYnua1N-31" target="y6UDbXkzMEYgvbYnua1N-28">
          <mxGeometry relative="1" as="geometry">
            <Array as="points">
              <mxPoint x="1050" y="565" />
              <mxPoint x="1050" y="460" />
            </Array>
          </mxGeometry>
        </mxCell>
        <mxCell id="y6UDbXkzMEYgvbYnua1N-79" value="N" style="edgeLabel;html=1;align=center;verticalAlign=middle;resizable=0;points=[];fontSize=13;" vertex="1" connectable="0" parent="y6UDbXkzMEYgvbYnua1N-29">
          <mxGeometry x="-0.4" y="-1" relative="1" as="geometry">
            <mxPoint as="offset" />
          </mxGeometry>
        </mxCell>
        <mxCell id="y6UDbXkzMEYgvbYnua1N-30" value="" style="edgeStyle=orthogonalEdgeStyle;rounded=0;orthogonalLoop=1;jettySize=auto;html=1;fontSize=13;" edge="1" parent="WIyWlLk6GJQsqaUBKTNV-1" source="y6UDbXkzMEYgvbYnua1N-31" target="y6UDbXkzMEYgvbYnua1N-33">
          <mxGeometry relative="1" as="geometry" />
        </mxCell>
        <mxCell id="y6UDbXkzMEYgvbYnua1N-78" value="Y" style="edgeLabel;html=1;align=center;verticalAlign=middle;resizable=0;points=[];fontSize=13;" vertex="1" connectable="0" parent="y6UDbXkzMEYgvbYnua1N-30">
          <mxGeometry x="-0.2" y="2" relative="1" as="geometry">
            <mxPoint as="offset" />
          </mxGeometry>
        </mxCell>
        <mxCell id="y6UDbXkzMEYgvbYnua1N-31" value="是否为0" style="rhombus;whiteSpace=wrap;html=1;fontSize=13;strokeWidth=2;" vertex="1" parent="WIyWlLk6GJQsqaUBKTNV-1">
          <mxGeometry x="880" y="525" width="140" height="80" as="geometry" />
        </mxCell>
        <mxCell id="y6UDbXkzMEYgvbYnua1N-32" value="" style="edgeStyle=orthogonalEdgeStyle;rounded=0;orthogonalLoop=1;jettySize=auto;html=1;fontSize=13;" edge="1" parent="WIyWlLk6GJQsqaUBKTNV-1" source="y6UDbXkzMEYgvbYnua1N-33" target="y6UDbXkzMEYgvbYnua1N-38">
          <mxGeometry relative="1" as="geometry" />
        </mxCell>
        <mxCell id="y6UDbXkzMEYgvbYnua1N-33" value="读取check_result_mask的1个字节" style="whiteSpace=wrap;html=1;fontSize=13;strokeWidth=2;" vertex="1" parent="WIyWlLk6GJQsqaUBKTNV-1">
          <mxGeometry x="890" y="645" width="120" height="60" as="geometry" />
        </mxCell>
        <mxCell id="y6UDbXkzMEYgvbYnua1N-34" value="" style="edgeStyle=orthogonalEdgeStyle;rounded=0;orthogonalLoop=1;jettySize=auto;html=1;fontSize=13;" edge="1" parent="WIyWlLk6GJQsqaUBKTNV-1" source="y6UDbXkzMEYgvbYnua1N-38" target="y6UDbXkzMEYgvbYnua1N-44">
          <mxGeometry relative="1" as="geometry" />
        </mxCell>
        <mxCell id="y6UDbXkzMEYgvbYnua1N-35" value="N" style="edgeLabel;html=1;align=center;verticalAlign=middle;resizable=0;points=[];fontSize=13;" vertex="1" connectable="0" parent="y6UDbXkzMEYgvbYnua1N-34">
          <mxGeometry x="-0.1929" y="2" relative="1" as="geometry">
            <mxPoint x="3" y="2" as="offset" />
          </mxGeometry>
        </mxCell>
        <mxCell id="y6UDbXkzMEYgvbYnua1N-36" value="" style="edgeStyle=orthogonalEdgeStyle;rounded=0;orthogonalLoop=1;jettySize=auto;html=1;fontSize=13;" edge="1" parent="WIyWlLk6GJQsqaUBKTNV-1" source="y6UDbXkzMEYgvbYnua1N-38" target="y6UDbXkzMEYgvbYnua1N-50">
          <mxGeometry relative="1" as="geometry" />
        </mxCell>
        <mxCell id="y6UDbXkzMEYgvbYnua1N-37" value="Y" style="edgeLabel;html=1;align=center;verticalAlign=middle;resizable=0;points=[];fontSize=13;" vertex="1" connectable="0" parent="y6UDbXkzMEYgvbYnua1N-36">
          <mxGeometry x="-0.8498" y="-1" relative="1" as="geometry">
            <mxPoint as="offset" />
          </mxGeometry>
        </mxCell>
        <mxCell id="y6UDbXkzMEYgvbYnua1N-38" value="是否为0" style="rhombus;whiteSpace=wrap;html=1;fontSize=13;strokeWidth=2;" vertex="1" parent="WIyWlLk6GJQsqaUBKTNV-1">
          <mxGeometry x="890" y="740" width="120" height="80" as="geometry" />
        </mxCell>
        <mxCell id="y6UDbXkzMEYgvbYnua1N-39" value="" style="edgeStyle=orthogonalEdgeStyle;rounded=0;orthogonalLoop=1;jettySize=auto;html=1;fontSize=13;" edge="1" parent="WIyWlLk6GJQsqaUBKTNV-1" source="y6UDbXkzMEYgvbYnua1N-44" target="y6UDbXkzMEYgvbYnua1N-46">
          <mxGeometry relative="1" as="geometry" />
        </mxCell>
        <mxCell id="y6UDbXkzMEYgvbYnua1N-40" value="N" style="edgeLabel;html=1;align=center;verticalAlign=middle;resizable=0;points=[];fontSize=13;" vertex="1" connectable="0" parent="y6UDbXkzMEYgvbYnua1N-39">
          <mxGeometry x="-0.4359" relative="1" as="geometry">
            <mxPoint as="offset" />
          </mxGeometry>
        </mxCell>
        <mxCell id="y6UDbXkzMEYgvbYnua1N-41" value="" style="edgeStyle=orthogonalEdgeStyle;rounded=0;orthogonalLoop=1;jettySize=auto;html=1;fontSize=13;" edge="1" parent="WIyWlLk6GJQsqaUBKTNV-1" source="y6UDbXkzMEYgvbYnua1N-44" target="y6UDbXkzMEYgvbYnua1N-48">
          <mxGeometry relative="1" as="geometry" />
        </mxCell>
        <mxCell id="y6UDbXkzMEYgvbYnua1N-42" value="Y" style="edgeLabel;html=1;align=center;verticalAlign=middle;resizable=0;points=[];fontSize=13;" vertex="1" connectable="0" parent="y6UDbXkzMEYgvbYnua1N-41">
          <mxGeometry x="-0.5621" y="-1" relative="1" as="geometry">
            <mxPoint as="offset" />
          </mxGeometry>
        </mxCell>
        <mxCell id="y6UDbXkzMEYgvbYnua1N-43" value="" style="edgeStyle=orthogonalEdgeStyle;rounded=0;orthogonalLoop=1;jettySize=auto;html=1;fontSize=13;" edge="1" parent="WIyWlLk6GJQsqaUBKTNV-1" source="y6UDbXkzMEYgvbYnua1N-44" target="y6UDbXkzMEYgvbYnua1N-38">
          <mxGeometry relative="1" as="geometry" />
        </mxCell>
        <mxCell id="y6UDbXkzMEYgvbYnua1N-44" value="是否&amp;gt;0" style="rhombus;whiteSpace=wrap;html=1;fontSize=13;strokeWidth=2;" vertex="1" parent="WIyWlLk6GJQsqaUBKTNV-1">
          <mxGeometry x="893.75" y="852" width="112.5" height="80" as="geometry" />
        </mxCell>
        <mxCell id="y6UDbXkzMEYgvbYnua1N-45" value="" style="edgeStyle=orthogonalEdgeStyle;rounded=0;orthogonalLoop=1;jettySize=auto;html=1;fontSize=13;" edge="1" parent="WIyWlLk6GJQsqaUBKTNV-1" source="y6UDbXkzMEYgvbYnua1N-46" target="y6UDbXkzMEYgvbYnua1N-52">
          <mxGeometry relative="1" as="geometry" />
        </mxCell>
        <mxCell id="y6UDbXkzMEYgvbYnua1N-46" value="&lt;div style=&quot;font-size: 13px;&quot;&gt;error_thread_cnt自增1&lt;/div&gt;" style="whiteSpace=wrap;html=1;fontSize=13;strokeWidth=2;" vertex="1" parent="WIyWlLk6GJQsqaUBKTNV-1">
          <mxGeometry x="770" y="955" width="120" height="60" as="geometry" />
        </mxCell>
        <mxCell id="y6UDbXkzMEYgvbYnua1N-47" style="edgeStyle=orthogonalEdgeStyle;rounded=0;orthogonalLoop=1;jettySize=auto;html=1;exitX=0.5;exitY=1;exitDx=0;exitDy=0;entryX=0.5;entryY=0;entryDx=0;entryDy=0;fontSize=13;" edge="1" parent="WIyWlLk6GJQsqaUBKTNV-1" source="y6UDbXkzMEYgvbYnua1N-48" target="y6UDbXkzMEYgvbYnua1N-54">
          <mxGeometry relative="1" as="geometry" />
        </mxCell>
        <mxCell id="y6UDbXkzMEYgvbYnua1N-48" value="right_thread_cnt自增1" style="whiteSpace=wrap;html=1;fontSize=13;strokeWidth=2;" vertex="1" parent="WIyWlLk6GJQsqaUBKTNV-1">
          <mxGeometry x="1010" y="955" width="120" height="60" as="geometry" />
        </mxCell>
        <mxCell id="y6UDbXkzMEYgvbYnua1N-49" value="" style="edgeStyle=orthogonalEdgeStyle;rounded=0;orthogonalLoop=1;jettySize=auto;html=1;fontSize=13;" edge="1" parent="WIyWlLk6GJQsqaUBKTNV-1" source="y6UDbXkzMEYgvbYnua1N-50" target="y6UDbXkzMEYgvbYnua1N-59">
          <mxGeometry relative="1" as="geometry" />
        </mxCell>
        <mxCell id="y6UDbXkzMEYgvbYnua1N-50" value="循环计数自增1&lt;div style=&quot;font-size: 13px;&quot;&gt;check_result_mask自增1&lt;/div&gt;" style="whiteSpace=wrap;html=1;fontSize=13;strokeWidth=2;" vertex="1" parent="WIyWlLk6GJQsqaUBKTNV-1">
          <mxGeometry x="685.3800000000001" y="1225" width="120" height="60" as="geometry" />
        </mxCell>
        <mxCell id="y6UDbXkzMEYgvbYnua1N-51" style="edgeStyle=orthogonalEdgeStyle;rounded=0;orthogonalLoop=1;jettySize=auto;html=1;exitX=0.5;exitY=1;exitDx=0;exitDy=0;entryX=0.75;entryY=0;entryDx=0;entryDy=0;fontSize=13;" edge="1" parent="WIyWlLk6GJQsqaUBKTNV-1" source="y6UDbXkzMEYgvbYnua1N-52" target="y6UDbXkzMEYgvbYnua1N-50">
          <mxGeometry relative="1" as="geometry" />
        </mxCell>
        <mxCell id="y6UDbXkzMEYgvbYnua1N-52" value="当前线程号记录到error_thread_no中&lt;div style=&quot;font-size: 13px;&quot;&gt;error_thread_no自增1&lt;br style=&quot;font-size: 13px;&quot;&gt;&lt;/div&gt;" style="whiteSpace=wrap;html=1;fontSize=13;strokeWidth=2;" vertex="1" parent="WIyWlLk6GJQsqaUBKTNV-1">
          <mxGeometry x="770" y="1065" width="120" height="80" as="geometry" />
        </mxCell>
        <mxCell id="y6UDbXkzMEYgvbYnua1N-53" style="edgeStyle=orthogonalEdgeStyle;rounded=0;orthogonalLoop=1;jettySize=auto;html=1;exitX=0.5;exitY=1;exitDx=0;exitDy=0;entryX=1;entryY=0.5;entryDx=0;entryDy=0;fontSize=13;" edge="1" parent="WIyWlLk6GJQsqaUBKTNV-1" source="y6UDbXkzMEYgvbYnua1N-54" target="y6UDbXkzMEYgvbYnua1N-50">
          <mxGeometry relative="1" as="geometry">
            <mxPoint x="788" y="1325" as="targetPoint" />
          </mxGeometry>
        </mxCell>
        <mxCell id="y6UDbXkzMEYgvbYnua1N-54" value="当前线程号记录到right_thread_no中&lt;div style=&quot;font-size: 13px;&quot;&gt;right_thread_no自增1&lt;br style=&quot;font-size: 13px;&quot;&gt;&lt;/div&gt;" style="whiteSpace=wrap;html=1;fontSize=13;strokeWidth=2;" vertex="1" parent="WIyWlLk6GJQsqaUBKTNV-1">
          <mxGeometry x="1010" y="1065" width="120" height="80" as="geometry" />
        </mxCell>
        <mxCell id="y6UDbXkzMEYgvbYnua1N-55" style="edgeStyle=orthogonalEdgeStyle;rounded=0;orthogonalLoop=1;jettySize=auto;html=1;exitX=1;exitY=0.5;exitDx=0;exitDy=0;entryX=1;entryY=0.5;entryDx=0;entryDy=0;fontSize=13;" edge="1" parent="WIyWlLk6GJQsqaUBKTNV-1" source="y6UDbXkzMEYgvbYnua1N-59" target="y6UDbXkzMEYgvbYnua1N-33">
          <mxGeometry relative="1" as="geometry">
            <mxPoint x="799.5" y="1445" as="sourcePoint" />
            <Array as="points">
              <mxPoint x="1170" y="1375" />
              <mxPoint x="1170" y="675" />
            </Array>
          </mxGeometry>
        </mxCell>
        <mxCell id="y6UDbXkzMEYgvbYnua1N-56" value="Y" style="edgeLabel;html=1;align=center;verticalAlign=middle;resizable=0;points=[];fontSize=13;" vertex="1" connectable="0" parent="y6UDbXkzMEYgvbYnua1N-55">
          <mxGeometry x="-0.9405" y="-4" relative="1" as="geometry">
            <mxPoint y="-3" as="offset" />
          </mxGeometry>
        </mxCell>
        <mxCell id="y6UDbXkzMEYgvbYnua1N-57" value="" style="edgeStyle=orthogonalEdgeStyle;rounded=0;orthogonalLoop=1;jettySize=auto;html=1;fontSize=13;" edge="1" parent="WIyWlLk6GJQsqaUBKTNV-1" source="y6UDbXkzMEYgvbYnua1N-59" target="y6UDbXkzMEYgvbYnua1N-64">
          <mxGeometry relative="1" as="geometry" />
        </mxCell>
        <mxCell id="y6UDbXkzMEYgvbYnua1N-58" value="N" style="edgeLabel;html=1;align=center;verticalAlign=middle;resizable=0;points=[];fontSize=13;" vertex="1" connectable="0" parent="y6UDbXkzMEYgvbYnua1N-57">
          <mxGeometry x="-0.3315" relative="1" as="geometry">
            <mxPoint as="offset" />
          </mxGeometry>
        </mxCell>
        <mxCell id="y6UDbXkzMEYgvbYnua1N-59" value="循环计数是否小于64" style="rhombus;whiteSpace=wrap;html=1;fontSize=13;strokeWidth=2;" vertex="1" parent="WIyWlLk6GJQsqaUBKTNV-1">
          <mxGeometry x="673.8800000000001" y="1335" width="143" height="80" as="geometry" />
        </mxCell>
        <mxCell id="y6UDbXkzMEYgvbYnua1N-60" value="" style="edgeStyle=orthogonalEdgeStyle;rounded=0;orthogonalLoop=1;jettySize=auto;html=1;exitX=0;exitY=0.5;exitDx=0;exitDy=0;fontSize=13;" edge="1" parent="WIyWlLk6GJQsqaUBKTNV-1" source="y6UDbXkzMEYgvbYnua1N-64" target="y6UDbXkzMEYgvbYnua1N-72">
          <mxGeometry relative="1" as="geometry" />
        </mxCell>
        <mxCell id="y6UDbXkzMEYgvbYnua1N-61" value="Y" style="edgeLabel;html=1;align=center;verticalAlign=middle;resizable=0;points=[];fontSize=13;" vertex="1" connectable="0" parent="y6UDbXkzMEYgvbYnua1N-60">
          <mxGeometry x="0.1274" y="-3" relative="1" as="geometry">
            <mxPoint as="offset" />
          </mxGeometry>
        </mxCell>
        <mxCell id="y6UDbXkzMEYgvbYnua1N-62" value="" style="edgeStyle=orthogonalEdgeStyle;rounded=0;orthogonalLoop=1;jettySize=auto;html=1;exitX=1;exitY=0.5;exitDx=0;exitDy=0;fontSize=13;" edge="1" parent="WIyWlLk6GJQsqaUBKTNV-1" source="y6UDbXkzMEYgvbYnua1N-64" target="y6UDbXkzMEYgvbYnua1N-74">
          <mxGeometry relative="1" as="geometry" />
        </mxCell>
        <mxCell id="y6UDbXkzMEYgvbYnua1N-63" value="N" style="edgeLabel;html=1;align=center;verticalAlign=middle;resizable=0;points=[];fontSize=13;" vertex="1" connectable="0" parent="y6UDbXkzMEYgvbYnua1N-62">
          <mxGeometry x="0.1844" relative="1" as="geometry">
            <mxPoint as="offset" />
          </mxGeometry>
        </mxCell>
        <mxCell id="y6UDbXkzMEYgvbYnua1N-64" value="error_thread_cnt是否为0" style="rhombus;whiteSpace=wrap;html=1;fontSize=13;strokeWidth=2;" vertex="1" parent="WIyWlLk6GJQsqaUBKTNV-1">
          <mxGeometry x="651.5000000000002" y="1465" width="187.75" height="80" as="geometry" />
        </mxCell>
        <mxCell id="y6UDbXkzMEYgvbYnua1N-65" value="返回" style="strokeWidth=2;html=1;shape=mxgraph.flowchart.start_1;whiteSpace=wrap;fontSize=13;" vertex="1" parent="WIyWlLk6GJQsqaUBKTNV-1">
          <mxGeometry x="410" y="1705" width="100" height="60" as="geometry" />
        </mxCell>
        <mxCell id="y6UDbXkzMEYgvbYnua1N-66" value="" style="edgeStyle=orthogonalEdgeStyle;rounded=0;orthogonalLoop=1;jettySize=auto;html=1;exitX=1;exitY=0.5;exitDx=0;exitDy=0;fontSize=13;" edge="1" parent="WIyWlLk6GJQsqaUBKTNV-1" source="y6UDbXkzMEYgvbYnua1N-67" target="y6UDbXkzMEYgvbYnua1N-70">
          <mxGeometry relative="1" as="geometry" />
        </mxCell>
        <mxCell id="y6UDbXkzMEYgvbYnua1N-67" value="check_result_mask对应位置写1" style="whiteSpace=wrap;html=1;fontSize=13;strokeWidth=2;" vertex="1" parent="WIyWlLk6GJQsqaUBKTNV-1">
          <mxGeometry x="260" y="1135" width="120" height="60" as="geometry" />
        </mxCell>
        <mxCell id="y6UDbXkzMEYgvbYnua1N-68" style="edgeStyle=orthogonalEdgeStyle;rounded=0;orthogonalLoop=1;jettySize=auto;html=1;exitX=0;exitY=0.5;exitDx=0;exitDy=0;entryX=0.5;entryY=0;entryDx=0;entryDy=0;fontSize=13;" edge="1" parent="WIyWlLk6GJQsqaUBKTNV-1" source="y6UDbXkzMEYgvbYnua1N-69" target="y6UDbXkzMEYgvbYnua1N-70">
          <mxGeometry relative="1" as="geometry" />
        </mxCell>
        <mxCell id="y6UDbXkzMEYgvbYnua1N-69" value="check_result_mask对应位置写-1" style="whiteSpace=wrap;html=1;fontSize=13;strokeWidth=2;" vertex="1" parent="WIyWlLk6GJQsqaUBKTNV-1">
          <mxGeometry x="540" y="1135" width="120" height="60" as="geometry" />
        </mxCell>
        <mxCell id="y6UDbXkzMEYgvbYnua1N-70" value="running_test_thread_num自减1" style="whiteSpace=wrap;html=1;fontSize=13;strokeWidth=2;" vertex="1" parent="WIyWlLk6GJQsqaUBKTNV-1">
          <mxGeometry x="380" y="1245" width="160" height="60" as="geometry" />
        </mxCell>
        <mxCell id="y6UDbXkzMEYgvbYnua1N-71" style="edgeStyle=orthogonalEdgeStyle;rounded=0;orthogonalLoop=1;jettySize=auto;html=1;exitX=0.5;exitY=1;exitDx=0;exitDy=0;entryX=0.5;entryY=0;entryDx=0;entryDy=0;entryPerimeter=0;fontSize=13;" edge="1" parent="WIyWlLk6GJQsqaUBKTNV-1" source="y6UDbXkzMEYgvbYnua1N-70" target="y6UDbXkzMEYgvbYnua1N-65">
          <mxGeometry relative="1" as="geometry" />
        </mxCell>
        <mxCell id="y6UDbXkzMEYgvbYnua1N-72" value="打印right_thread_cnt和TEST_THREAD_NUM" style="whiteSpace=wrap;html=1;fontSize=13;strokeWidth=2;" vertex="1" parent="WIyWlLk6GJQsqaUBKTNV-1">
          <mxGeometry x="550" y="1585" width="149.99" height="60" as="geometry" />
        </mxCell>
        <mxCell id="y6UDbXkzMEYgvbYnua1N-73" value="" style="edgeStyle=orthogonalEdgeStyle;rounded=0;orthogonalLoop=1;jettySize=auto;html=1;fontSize=13;" edge="1" parent="WIyWlLk6GJQsqaUBKTNV-1" source="y6UDbXkzMEYgvbYnua1N-74" target="y6UDbXkzMEYgvbYnua1N-76">
          <mxGeometry relative="1" as="geometry" />
        </mxCell>
        <mxCell id="y6UDbXkzMEYgvbYnua1N-74" value="打印error_thread_cnt和error_thread_no" style="whiteSpace=wrap;html=1;fontSize=13;strokeWidth=2;" vertex="1" parent="WIyWlLk6GJQsqaUBKTNV-1">
          <mxGeometry x="805.3850000000002" y="1585" width="120" height="60" as="geometry" />
        </mxCell>
        <mxCell id="y6UDbXkzMEYgvbYnua1N-75" style="edgeStyle=orthogonalEdgeStyle;rounded=0;orthogonalLoop=1;jettySize=auto;html=1;exitX=0;exitY=0.5;exitDx=0;exitDy=0;entryX=1;entryY=0.5;entryDx=0;entryDy=0;entryPerimeter=0;fontSize=13;" edge="1" parent="WIyWlLk6GJQsqaUBKTNV-1" source="y6UDbXkzMEYgvbYnua1N-76" target="y6UDbXkzMEYgvbYnua1N-65">
          <mxGeometry relative="1" as="geometry">
            <mxPoint x="690" y="1735" as="targetPoint" />
          </mxGeometry>
        </mxCell>
        <mxCell id="y6UDbXkzMEYgvbYnua1N-76" value="打印right_thread_cnt和right_thread_no" style="whiteSpace=wrap;html=1;fontSize=13;strokeWidth=2;" vertex="1" parent="WIyWlLk6GJQsqaUBKTNV-1">
          <mxGeometry x="805.3850000000002" y="1705" width="120" height="60" as="geometry" />
        </mxCell>
        <mxCell id="y6UDbXkzMEYgvbYnua1N-77" style="edgeStyle=orthogonalEdgeStyle;rounded=0;orthogonalLoop=1;jettySize=auto;html=1;exitX=0.5;exitY=1;exitDx=0;exitDy=0;entryX=1;entryY=0.5;entryDx=0;entryDy=0;entryPerimeter=0;fontSize=13;" edge="1" parent="WIyWlLk6GJQsqaUBKTNV-1" source="y6UDbXkzMEYgvbYnua1N-72" target="y6UDbXkzMEYgvbYnua1N-65">
          <mxGeometry relative="1" as="geometry" />
        </mxCell>
      </root>
    </mxGraphModel>
  </diagram>
</mxfile>
